/* XPM */
static char *result[] = {
/* columns rows colors chars-per-pixel */
"64 64 128 2 ",
"   c #3F201B",
".  c #40211E",
"X  c #432421",
"o  c #442827",
"O  c #4D2A26",
"+  c #522B27",
"@  c #542D29",
"#  c #582E2A",
"$  c #5D322D",
"%  c #432F31",
"&  c #433033",
"*  c #493437",
"=  c #4A363A",
"-  c #4C393F",
";  c #60342F",
":  c #653631",
">  c #683732",
",  c #663934",
"<  c #6C3A35",
"1  c #743D37",
"2  c #783E37",
"3  c #723D38",
"4  c #71423D",
"5  c #79423C",
"6  c #4C424C",
"7  c #4A4C5D",
"8  c #654144",
"9  c #684546",
"0  c #6C4945",
"q  c #624649",
"w  c #6A474B",
"e  c #6C4A4E",
"r  c #744E4A",
"t  c #794F4A",
"y  c #73514D",
"u  c #7A514D",
"i  c #6E4C50",
"p  c #734F52",
"a  c #6C5355",
"s  c #755153",
"d  c #7C5653",
"f  c #7E5855",
"g  c #735A5F",
"h  c #424D63",
"j  c #4D5266",
"k  c #455168",
"l  c #4A566D",
"z  c #545464",
"x  c #5D5A6A",
"c  c #4C5972",
"v  c #525E75",
"b  c #5B5F75",
"n  c #546076",
"m  c #566279",
"M  c #5A667B",
"N  c #5B687D",
"B  c #61606F",
"V  c #65647A",
"C  c #7C767D",
"Z  c #82463F",
"A  c #824740",
"S  c #8C4C45",
"D  c #904F47",
"F  c #9C554D",
"G  c #87595B",
"H  c #885A5C",
"J  c #915F61",
"K  c #847775",
"L  c #857876",
"P  c #8C7D7B",
"I  c #937E7C",
"U  c #5B6985",
"Y  c #646A81",
"T  c #6E6E85",
"R  c #636F8C",
"E  c #62718F",
"W  c #6D738A",
"Q  c #717087",
"!  c #7E7980",
"~  c #75748A",
"^  c #7A768B",
"/  c #7A798D",
"(  c #637390",
")  c #6E7C97",
"_  c #6E7E9E",
"`  c #747D95",
"'  c #6F7FA0",
"]  c #807A81",
"[  c #807F8D",
"{  c #76839C",
"}  c #7B869D",
"|  c #6F80A1",
" . c #7081A1",
".. c #7D89A1",
"X. c #7E8CA9",
"o. c #878084",
"O. c #86818F",
"+. c #998D8B",
"@. c #878290",
"#. c #868B93",
"$. c #898E95",
"%. c #8C8A9A",
"&. c #908D9D",
"*. c #8F9090",
"=. c #939494",
"-. c #9E9392",
";. c #90959A",
":. c #A09594",
">. c #848FA6",
",. c #828FA9",
"<. c #8590A7",
"1. c #8C91A0",
"2. c #8794AF",
"3. c #8895AF",
"4. c #8F99AD",
"5. c #909BAF",
"6. c #8996B0",
"7. c #919DB5",
"8. c #9DA0A0",
"9. c #98A1B2",
"0. c #9AA6BD",
"q. c #9CA8BF",
"w. c #A1A3A2",
"e. c #ABAEAF",
"r. c #B0B3B3",
"t. c #9CA9C0",
"y. c #A1ACC1",
"u. c None",
/* pixels */
"u.u.u.u.u.u.u.u.u.u.u.u.u.u.u.u.u.u.u.u.u.u.u.u.u.u.u.u.u.u.u.u.u.u.u.u.u.u.u.u.u.u.u.u.u.u.u.u.u.u.u.u.u.u.u.u.u.u.u.u.u.u.u.u.",
"u.u.u.u.u.u.u.u.u.u.u.u.u.u.u.u.u.u.u.u.u.u.u.u.u.u.u.u.u.u.u.u.u.u.u.u.u.u.u.u.u.u.u.u.u.u.u.u.u.u.u.u.u.u.u.u.u.u.u.u.u.u.u.u.",
"u.u.u.u.u.u.u.u.u.u.u.u.u.u.u.u.u.u.u.u.u.u.u.u.u.u.u.u.u.u.u.u.u.u.u.u.u.u.u.u.u.u.u.u.u.u.u.u.u.u.u.u.u.u.u.u.u.u.u.u.u.u.u.u.",
"u.u.u.u.u.u.u.u.u.u.u.u.u.u.u.u.u.u.u.u.u.u.u.u.u.u.u.u.u.u.u.u.u.u.u.u.u.u.u.u.u.u.u.u.u.u.u.u.u.u.u.u.u.u.u.u.u.u.u.u.u.u.u.u.",
"u.u.u.u.u.u.u.u.u.u.u.u.u.u.u.u.u.u.u.u.u.u.u.u.u.u.u.u.u.u.u.u.u.u.u.u.u.u.u.u.u.u.u.u.u.u.u.u.u.u.u.u.u.u.u.u.u.u.u.u.u.u.u.u.",
"u.u.u.u.u.u.u.u.u.u.u.u.u.u.u.u.u.u.u.u.u.u.u.u.u.u.u.u.u.u.u.u.u.u.u.u.u.u.u.u.u.u.u.u.u.u.u.u.u.u.u.u.u.u.u.u.u.u.u.u.u.u.u.u.",
"u.u.u.u.u.u.u.u.u.u.u.u.u.u.u.u.u.u.u.u.u.u.u.u.u.u.u.u.u.u.u.u.u.u.u.u.u.u.u.u.u.u.u.u.u.u.u.u.u.u.u.u.u.u.u.u.u.u.u.u.u.u.u.u.",
"u.u.u.u.u.u.u.u.u.u.u.u.u.u.u.u.u.u.u.u.u.u.u.u.u.u.u.u.u.u.u.u.u.u.u.u.u.u.u.u.u.u.u.u.u.u.u.u.u.u.u.u.u.u.u.u.u.u.u.u.u.u.u.u.",
"u.u.u.u.u.u.u.u.u.u.u.u.u.u.u.u.u.u.u.u.u.u.u.u.u.u.2.6.2.6.3.2.3.2.3.3.6.2.u.u.u.u.u.u.u.u.u.u.u.u.u.u.u.u.u.u.u.u.u.u.u.u.u.u.",
"u.u.u.u.u.u.u.u.u.u.u.u.u.u.u.u.u.u.u.u.u.u.u.u.u.u.3.3.3.3.3.6.3.6.6.3.3.2.u.u.u.u.u.u.u.u.u.u.u.u.u.u.u.u.u.u.u.u.u.u.u.u.u.u.",
"u.u.u.u.u.u.u.u.u.u.u.u.u.u.u.u.u.u.u.u.u.u.u.u.u.u.6.3.3.3.2.3.3.2.2.3.6.6.u.u.u.u.u.u.u.u.u.u.u.u.u.u.u.u.u.u.u.u.u.u.u.u.u.u.",
"u.u.u.u.u.u.u.u.u.u.u.u.u.u.u.u.u.u.u.u.u.u.u.u.u.u.,.3.2.6.2.2.3.6.3.3.2.<.u.u.u.u.u.u.u.u.u.u.u.u.u.u.u.u.u.u.u.u.u.u.u.u.u.u.",
"u.u.u.u.u.u.u.u.u.u.u.u.u.u.3.3.2.3.3.3.6.6.6.{ v m } 6.4.6.2.2.2.2.2.3.6.} m v { 6.6.3.3.6.3.3.3.3.u.u.u.u.u.u.u.u.u.u.u.u.u.u.",
"u.u.u.u.u.u.u.u.u.u.u.u.u.u.6.3.3.2.6.2.6.6.6.{ v n ..7.7.7.7.7.7.7.7.7.7...n v { 6.6.3.3.2.2.6.6.2.u.u.u.u.u.u.u.u.u.u.u.u.u.u.",
"u.u.u.u.u.u.u.u.u.u.u.u.u.u.6.2.3.6.6.3.2.6.6.{ v m <.y.q.q.q.q.t.q.y.y.y.3.n v { 6.6.3.2.6.2.3.2.6.u.u.u.u.u.u.u.u.u.u.u.u.u.u.",
"u.u.u.u.u.u.u.u.u.u.u.u.u.u.,.3.3.3.2.3.3.6.6.{ v M <.t.0.0.0.0.0.0.0.0.t.<.n n { 6.6.6.3.3.3.3.2.<.u.u.u.u.u.u.u.u.u.u.u.u.u.u.",
"h n { 6.6.6.2.3.3.6.6.{ v M ..6.3.2.2.2.2.6.6.{ v v ) X.X.X.X.X...X.X.X.X.` c v { 6.6.2.2.2.2.6.6. .m n { 6.6.2.2.6.2.3.6.{ n h ",
"h n { 6.6.6.6.3.2.6.6.{ v v ..7.7.7.7.7.7.7.7...v c R _ _ _ _ _ ' _ _ _ ' E c v ..7.7.7.7.7.7.7.9...n n { 6.6.6.3.2.2.6.6.} n h ",
"h n { 6.6.2.2.3.2.6.6.{ v M <.y.y.t.y.q.y.y.y.<.M c ( ' _ _ _ _ ' _ _ _ ' E c M <.y.t.q.t.y.t.y.y.3.m n { 6.6.6.6.3.3.6.6.{ n h ",
"h v { 2.6.6.3.3.6.6.6.{ v m >.q.0.0.0.0.0.q.t.<.M c ( ' ' _ _ ' ' _ _  .' ( c m >.y.0.0.0.0.0.0.0.<.m c { 6.6.2.2.3.6.6.6.{ v h ",
"h n { 6.2.2.2.2.2.6.6.{ v v ) ,.X.X.X.X.X.X.X.) v c E ' ' ' ' ' _ ' ' '  .( c v ) ,.X.X.X.X...X.X.) c n { 3.2.2.2.2.2.6.6.{ n h ",
"h m ..9.7.7.7.7.7.7.7...v c ( ' _ _ _ _ _ _ _ E c c ( '  . .' ' ' '  . . .( v c ( ' _ _ _ _ ' ' | E c n ..7.9.7.7.7.7.9.7...n h ",
"h m <.y.y.q.t.y.y.y.y.<.M c ( ' _ _ _ _ _ ' _ ( c v )  . . .' '  . . . . .( c c ( ' _ _ ' _ ' | | E c M <.y.y.q.t.t.q.y.y.<.M h ",
"h m <.0.q.0.0.0.0.q.t.>.m c (  .' _  . .'  . .E j h b Y Y Y Y Y Y Y Y Y Y b j j (  .' '  . .'  . .( c m <.t.q.q.0.0.0.q.q.X.m h ",
"h c _ X.X.X.X.X.X.X.X.) v c (  . .'  . . . . .R 6 % = - - - - - - - - - - = % 6 R |  .|  . .|  . .( c c ) X.X.X.X.X.X.X.X.) v h ",
"h c E | _ _ _ _ ) ' ' R j 7 b Y Y Y Y Y Y Y T x *       . . .   . . . . .     = x Y Y Y Y Y Y Y Y b j j R ' _ _ _ _ _ _ _ E c h ",
"h c E  .' _ _ _ ' ' ' Y 6 % = - - - - - - - - * o . . . . . .   .     . . . X o = - - - - - - - - = % 6 Y | | ' _ _ _ _  .E c h ",
"h c (  .'  .' ' ' | | Y -     . X   . . . . .   . . X X . X X X X X X . X . . . . . .   . . . . . .   - Y  . . .| | | |  .E c h ",
"h v (  . . . .{  . . .Y - .   .   X . . . . . X . X . X X . X X . X X X X X . . .   X . . . . . . . . - Y  . .| {  . . . .( v h ",
"h l U ( ( E ( ( ( ( ( b = X . X . X . X X . . X o X X X X X X o X X o X X X X o X X . X X . X X X   . = b ( ( ( ( E ( ( ( U l h ",
"h k l c c c c l c c c 7 % . X . . X X . . . . X O + o X + # @ @ @ @ # + X o O O X .   X X X . X X X . % 7 c c c c c c l c l k h ",
"h l m N M M M M N N N z = X X o o X X X o o o o @ @ o X @ # # $ $ # # @ X o @ @ O X o X X X X o X X X = z N N M M M M M N m l h ",
"h v } 5.5.5.4.4.4.5.7./ 8 @ @ @ @ + X X O + @ @ # @ o o @ $ # # # $ @ @ o X @ # @ @ @ O o X + @ @ + @ q @.7.4.4.4.4.4.4.7.} n h ",
"h M >.t.q.0.0.0.0.0.q.%.e # # # # @ O X @ : $ : ; # O O @ ; ; ; ; ; : # O O @ : ; ; ; @ X o @ # # # @ i %.t.0.0.0.0.0.0.q.<.m 7 ",
"h v ) ,.X.X.X.X.X.X.X.^ q @ # $ # @ o X : , , , , : $ @ , , , , , , , : # # : , < < < ; O X + @ # # # q ^ X.X.X.X.X.X.X.X.| c h ",
"h c E _ _ _ _ _ | | _ T q $ # $ $ # O + , < 3 < 1 , ; ; < < 3 < < < 3 , : : , 3 < < < : + O # : : $ $ q Y | ' _ | _ _ _ | ( c h ",
"h c ( ' _ _ _ _ | | | T i : : > > : # # , < < < < < : $ , < < < < 3 3 , ; ; , < 3 < < , $ @ : < , > > w T ' ' ' _ _ _ | | E c h ",
"h c ( '  ._ _ _ | | | W g r r y d r , : > 1 1 < < , $ : < < 3 < < < < < ; ; , < < < < < ; : , < < < < i T ' | ' _ _ _ | { E c h ",
"h c ( {  ._ _ _ { _ | ` L L L o.+.P w ; < < < < < , : $ < < 3 < < < < , ; ; < < 3 < < , ; ; < < < < < i T | | ' ' _ { |  .( c h ",
"h c (  . . .| ' _ _ | { #.=.=.-.e.-.y # , < < < 3 , $ : , < < < < 3 < , ; : < < < < < < ; ; < < 3 < < r Q  . . . . . . . .( c h ",
"h v (  . .'  .' '  .' { #.=.w.e.r.-.y $ > < < < < < ; ; , < 3 < < 3 < , ; ; , < < < < , : $ < < < < < i W  . .'  .{ ' |  .( c h ",
"h c U ( ( ( ( ( E E ( W C P +.:.:.P 0 ; > < 1 < < < ; ; < < < < < < 3 , : : , < 3 < < < $ : , < < < < e V ( ( E E ( R ( ( U c h ",
"h k l c v l c c c c c z a u d d d r , $ < < < < < < ; ; < < < < < 3 < , : # , < < < 3 , : $ < < < < < 8 z c c c c c c c c l k h ",
"h l v N M M M M M N N x 9 > < < < > $ ; , < 3 < < , ; ; , < < 3 < < < < : $ < 3 < 3 < , $ : , 4 t t 3 9 x N N M m N M M N m l h ",
"h v } 7.4.4.4.4.4.6.7.O.u > < < < : ; ; < < < < 3 , ; ; , < 3 < < < 3 , : $ , < 3 < < , : $ > t I I t p @.7.4.4.4.4.4.4.5.} m h ",
"h M >.t.q.0.0.0.t.t.q.&.s < < < < , ; ; , < 3 < < , ; ; < < < < < 3 < < $ : < < < < 3 , : $ : f :.:.G s %.t.0.0.0.0.0.t.q.>.M h ",
"h v ) X.,.X.,.X.X.X.X.^ p 1 < < < < ; ; < < < < < < ; ; , 3 < < < < 3 , : ; , < < < < < $ $ > d :.:.u r ^ X.X.X.X.X.X.X.X.` v h ",
"h c R _ _ _ _ _ ' ' ' T e < < < < < ; ; < < 3 < < < ; ; , < 3 < < < < , $ : , < < 3 < , : # > G :.-.d w T ' ' _ _ _ _ ' ' ( l h ",
"h c R ' ' _ _ _ _ '  .T p < < < < < ; ; < < 3 < < < ; ; < < 3 < 3 < < < ; $ < < < < < > ; ; : f -.:.d w T ' ' _ _ _ _ _ ' ( c h ",
"h c ( ' ' ' _ _ ' '  .T e < < 1 < , ; ; < < < < < , ; ; , < < < < < < , ; : , < < 3 < < ; ; > f :.-.d e T  .' ' _ _ _ _  .( v h ",
"h v ( ' ' ' _ _ _  . .Q r < < < < < : $ , < < < < < ; ; < < 3 < < < < < ; ; < < < 3 < > ; $ > f :.:.u r T  . .' ' _ _  . .( c h ",
"h v (  .' {  . . . . .T e < < < < < $ : < < < 3 < , ; ; , < < < < 3 < < ; ; , 3 < < < > ; ; , f :.:.d e T  . .' '  . . . .( c h ",
"h c (  . . .' '  .' ' T i < < < < < ; $ , < < < 3 , ; ; < < < < < 3 < , ; ; < < < 3 < < $ $ > f :.:.d e T  .' ' ' ' {  . .( v h ",
"h l U ( ( ( E E ( ( ( V w < < < < > $ : , 3 < < < , ; ; < < 3 < < < 3 , ; ; , < < < < < : $ > u I I t w V ( ( R ( ( ( E ( U l h ",
"h k c c c c c c c c c z < > < < < : $ ; < < < 3 < < $ ; , < < < < 3 < , ; ; < < 3 < < < $ ; , 4 u t 3 8 z c c c c c c c c l k h ",
"h j v N M M M M M N U B a r t t d y , $ , 3 < < 3 , : $ < < < 3 < < < < ; $ < < < < < , : $ < < < < < w x N N M M M M M M m l h ",
"h v } 5.5.4.4.4.4.4.5.&.o.L K P +.P 0 $ > < < 3 < , ; ; < < < < < < < < ; ; , < < 3 < , ; ; < < < < < s O.7.4.4.4.4.4.4.5.} b h ",
"h M >.t.q.q.0.0.q.0.q.7.;.*.=.8.e.+.y $ > < < < < , ; ; , 3 < 3 < 3 < < ; ; , 3 < < < < ; ; < < < < < s &.t.t.0.0.0.0.0.t.>.m h ",
"h v ) ,.X.X.X.X.X.X.X...*.=.w.e.r.-.y $ > < 3 3 3 , ; ; < < < < < < < , ; ; , < < 3 < < ; ; < < 1 < < p / X.X.X.X.X.X.,.X.) v h ",
"h c E _ _ _ _ _ _ ' ' ` ! P +.-.-.P 0 $ > < < < < , ; : , < < < < < 3 , ; ; < < < < < > ; ; , < < < < e T ' ' _ _ _ _ _ ' ( c h ",
"h c ( ' _ _ _ _ _ ' ' Q g y d d d r , $ < < < < < , : ; > < < < < < < , ; ; , < < < < , ; $ > < < < < e T  .' _ _ _ _ _ ' ( c h ",
"h c ( ' | ' _ _ _  . .Q s 3 2 3 1 1 : : 3 5 5 5 5 3 ; : 3 5 5 5 5 5 5 3 : ; 3 5 5 5 5 4 : : 1 5 5 2 2 p Q ' | ' _ _ _  .' ( c h ",
"h c ( { ' ' _ ' _  ._ Q G D D S D Z > : t D D D D Z : , t D D S D D D A : , A D D D D Z , : Z D D D D H ~ ' ' _ _ { _  . .( v h ",
"h c ( ' ' ' { _ _ ' _ ^ J F F F F S > < S F F F F S < < S F F F F F F S < < S F F F F S < < S F F F F J ^ | ' ' ' ' _  ._ ( c h "
};
