/* XPM */
static char *result[] = {
/* columns rows colors chars-per-pixel */
"64 64 214 2 ",
"   c #010102",
".  c #070709",
"X  c #090709",
"o  c #0C0A0D",
"O  c #070609",
"+  c #130A0B",
"@  c #1C0C0E",
"#  c #150608",
"$  c #0F0F12",
"%  c #130F11",
"&  c #1B0F12",
"*  c #131215",
"=  c #161619",
"-  c #181619",
";  c #17191C",
":  c #1A1B1E",
">  c #1B1114",
",  c #0F1318",
"<  c #260B0B",
"1  c #2C0F10",
"2  c #340F10",
"3  c #2A1619",
"4  c #361112",
"5  c #3D1214",
"6  c #3D1A1D",
"7  c #340D0E",
"8  c #1B1D20",
"9  c #231F21",
"0  c #3C1E21",
"q  c #232326",
"w  c #262629",
"e  c #2A292C",
"r  c #27272B",
"t  c #372528",
"y  c #2D2D31",
"u  c #322D32",
"i  c #3B2F32",
"p  c #2E3136",
"a  c #323236",
"s  c #34353A",
"d  c #3A3A3E",
"f  c #38363A",
"g  c #431415",
"h  c #47191A",
"j  c #591A1B",
"k  c #641D1E",
"l  c #6B1F1F",
"z  c #4A1F21",
"x  c #6E1F20",
"c  c #631F20",
"v  c #4C3031",
"b  c #692526",
"n  c #762223",
"m  c #622D31",
"M  c #653235",
"N  c #743335",
"B  c #6D4229",
"V  c #3B3D42",
"C  c #373F43",
"Z  c #413E43",
"A  c #5D3D41",
"S  c #3B4146",
"D  c #3B4348",
"F  c #454549",
"G  c #49464C",
"H  c #4B494E",
"J  c #424145",
"K  c #56494E",
"L  c #4D4D52",
"P  c #444C51",
"I  c #524D53",
"U  c #5B4E53",
"Y  c #4C5154",
"T  c #535355",
"R  c #54545A",
"E  c #5B5B5C",
"W  c #59585D",
"Q  c #695855",
"!  c #774B4F",
"~  c #5C5B62",
"^  c #555B61",
"/  c #625E65",
"(  c #5D646A",
")  c #5E6166",
"_  c #636164",
"`  c #65626A",
"'  c #686A6D",
"]  c #78656C",
"[  c #626D74",
"{  c #6C6C74",
"}  c #736E76",
"|  c #716F78",
" . c #647178",
".. c #677379",
"X. c #75737B",
"o. c #78767B",
"O. c #852828",
"+. c #942C2C",
"@. c #9C2D2E",
"#. c #903536",
"$. c #8A3435",
"%. c #AC3232",
"&. c #A63C3D",
"*. c #AB3C3D",
"=. c #A33434",
"-. c #B23433",
";. c #B83535",
":. c #9D5227",
">. c #BC5639",
",. c #AC513C",
"<. c #C35E33",
"1. c #C16029",
"2. c #C96636",
"3. c #863D40",
"4. c #8A4245",
"5. c #9D4A4C",
"6. c #9A4447",
"7. c #85555A",
"8. c #975559",
"9. c #92534F",
"0. c #A24B4D",
"q. c #A24547",
"w. c #B94D4F",
"e. c #B6554A",
"r. c #B25551",
"t. c #BF7149",
"y. c #B9694E",
"u. c #8F5B62",
"i. c #925E62",
"p. c #956066",
"a. c #996768",
"s. c #8A747C",
"d. c #8F7A7B",
"f. c #927C7C",
"g. c #8F6C73",
"h. c #A57463",
"j. c #AC7072",
"k. c #8E614D",
"l. c #C25940",
"z. c #C97972",
"x. c #C16F5C",
"c. c #B5867B",
"v. c #7C7B84",
"b. c #797B84",
"n. c #6E7880",
"m. c #827C85",
"M. c #8A7C84",
"N. c #957A81",
"B. c #7C828A",
"V. c #77848C",
"C. c #7F8A93",
"Z. c #84838C",
"A. c #89858D",
"S. c #8A8C8D",
"D. c #848A93",
"F. c #8B8992",
"G. c #888891",
"H. c #938D94",
"J. c #86959E",
"K. c #8C939D",
"L. c #8F9396",
"P. c #97979B",
"I. c #99868D",
"U. c #A69592",
"Y. c #8797A0",
"T. c #8E96A1",
"R. c #8B99A2",
"E. c #9197A1",
"W. c #939BA5",
"Q. c #949FA9",
"!. c #95A2AC",
"~. c #9BA3AA",
"^. c #97A6B0",
"/. c #98A6B1",
"(. c #9AABB5",
"). c #9CAEB9",
"_. c #97A8B2",
"`. c #9EB1BB",
"'. c #A3A3A4",
"]. c #A9AAAA",
"[. c #B9A5A9",
"{. c #A3B4BD",
"}. c #ACB4B8",
"|. c #BBBABB",
" X c #A7ABB2",
".X c #D48181",
"XX c #CB8D8F",
"oX c #D2A5A2",
"OX c #EBBCBC",
"+X c #AAB9C2",
"@X c #A7B9C3",
"#X c #F0BFC0",
"$X c #B7C3CA",
"%X c #BCC9D0",
"&X c #C7C9CA",
"*X c #D6C6C6",
"=X c #C2CED4",
"-X c #C5D1D7",
";X c #C6D2D8",
":X c #CDD7DD",
">X c #DCDCDC",
",X c #D1D6D9",
"<X c #D4CED1",
"1X c #D3DBE0",
"2X c #DCE3E6",
"3X c #E2E2E2",
"4X c #E3EAED",
"5X c #E8EAEB",
"6X c #F5E6E6",
"7X c #ECF1F4",
"8X c #F2F4F5",
"9X c #F7F9FA",
"0X c #E3C5C5",
"qX c None",
/* pixels */
"qXqXqXqXqXqXqXqXqXqXqXqXqXqXqXqXqXqXqXqX. . .   .   . .   .   . qXqXqXqXqXqXqXqXqXqXqXqXqXqXqXqXqXqXqXqXqXqXqXqXqXqXqXqXqXqXqXqX",
"qXqXqXqXqXqXqXqXqXqXqXqXqXqXqXqXqXqXqXqX. . . . . . . . X X . . qXqXqXqXqXqXqXqXqXqXqXqXqXqXqXqXqXqXqXqXqXqXqXqXqXqXqXqXqXqXqXqX",
"qXqXqXqXqXqXqXqXqXqXqXqXqXqXqXqXqXqXqXqX. . . X + @ + @ @ @ @ @ qXqXqXqXqXqXqXqXqXqXqXqXqXqXqXqXqXqXqXqXqXqXqXqXqXqXqXqXqXqXqXqX",
"qXqXqXqXqXqXqXqXqXqXqXqXqXqXqXqXqXqXqXqX. . X @ 1 5 h g g g 5 4 1 qXqXqXqXqXqXqXqXqXqXqXqXqXqXqXqXqXqXqXqXqXqXqXqXqXqXqXqXqXqXqX",
"qXqXqXqXqXqXqXqXqXqXqXqXqXqXqXqXqXqXqXqX  . + 1 h c n n n x c j 4 @ . qXqXqXqXqXqXqXqXqXqXqXqXqXqXqXqXqXqXqXqXqXqXqXqXqXqXqXqXqX",
"qXqXqXqXqXqXqXqXqXqXqXqXqXqXqXqXqXqXqXqX. . & 5 j O.+.@.@.+.O.c 5 @ .   qXqXqXqXqXqXqXqXqXqXqXqXqXqXqXqXqXqXqXqXqXqXqXqXqXqXqXqX",
"qXqXqXqXqXqXqXqXqXqXqXqXqXqXqXqXqXqXqXqX  . @ 5 c O.+.=.&.*.#.b 6 & .   qXqXqXqXqXqXqXqXqXqXqXqXqXqXqXqXqXqXqXqXqXqXqXqXqXqXqXqX",
"qXqXqXqXqXqXqXqXqXqXqXqXqXqXqXqXqXqXqXqXqX. @ 4 j c n #.3.0.4.M 0 @       qXqXqXqXqXqXqXqXqXqXqXqXqXqXqXqXqXqXqXqXqXqXqXqXqXqXqX",
"qXqXqXqXqXqXqXqXqXqXqXqXqXqXqXqXqXqXqXqXqXqXqX< 7 5 z M 7.7.7.A t %                           qXqXqXqXqXqXqXqXqXqXqXqXqXqXqXqXqX",
"qXqXqXqXqXqXqXqXqXqXqXqXqXqXqXqXqXqXqXqXqXqXqXqX# & 0 v Q ] ] U i - X     O . . . . . . . . . . qXqXqXqXqXqXqXqXqXqXqXqXqXqXqXqX",
"qXqXqXqXqXqXqXqXqXqXqXqXqXqXqXqXqXqXqXqXqXqXqXqX% = w Z W } } / F e 8 ; 8 8 8 8 8 8 : : 8 8 8 ; qXqXqXqXqXqXqXqXqXqXqXqXqXqXqXqX",
"qXqXqXqXqXqXqXqXqXqXqXqXqXqXqXqXqXqXqXqXqXqXqX: 9 y V I / X.b.{ ~ P D S C D C S S S S S D S C C e qXqXqXqXqXqXqXqXqXqXqXqXqXqXqX",
"qXqXqXqXqXqXqXqXqXqXqXqXqXqXqXqXqXqXqXqXqX  , 9 V H ^ / } v.v.b.n...[ [ [ [ [ [ [ [ [ [ [ [ ( P s ; . qXqXqXqXqXqXqXqXqXqXqXqXqX",
"qXqXqXqXqXqXqXqXqXqXqXqXqXqXqXqXqXqXqXqX  O - a H / } v.m.m.Z.A.D.K.Y.Y.Y.Y.Y.Y.Y.J.Y.Y.R.Y.V.( C 8 .   qXqXqXqXqXqXqXqXqXqXqXqX",
"qXqXqXqXqXqXqXqXqXqXqXqXqXqXqXqXqXqXqXqX% ; 9 Z ~ v.m.F.A.Z.F.K.Q.^.(.).).(.(.(.(.(.).).`.(.J.[ S 8 .   qXqXqXqXqXqXqXqXqXqXqXqX",
"qXqXqXqXqXqXqXqXqXqXqXqXqXqXqXqXqXqXqX8 w y V R | m.K.E.K.K.K.W.!.).`.`.`.`.`.`.`.`.`.@X@X`.Y.[ S : .   qXqXqXqXqXqXqXqXqXqXqXqX",
"qXqXqXqXqXqXqXqXqXqXqXqXqXqXqXqXqX. = w f H ~ } Z.K.Q.Q.Q.E.R.!._.(.).).).).).).).).`.{.{.).Y.[ S : .   qXqXqXqXqXqXqXqXqXqXqXqX",
"qXqXqXqXqXqXqXqXqXqXqXqXqXqXqXqX  . - y H ` o.Z.K.Q././.(./.(.(.(.).).).).).).).).).`.{.{.).Y. .S 8 .   qXqXqXqXqXqXqXqXqXqXqXqX",
"qXqXqXqXqXqXqXqXqXqXqXqXqXqXqXqX  . = a R o.G.E.!.(.`.{.{.{.+X}.+X+X+X+X+X+X+X+X+X+X+X+X$X{.Q...D 8 .   qXqXqXqXqXqXqXqXqXqXqXqX",
"qXqXqXqXqXqXqXqXqXqXqXqXqXqXqXqX  . - f ~ v.E.!./.(.{.+X$X%X=X-X-X-X-X;X;X;X-X-X;X;X;X:X:X-X}.B.Y 9 .   qXqXqXqXqXqXqXqXqXqXqXqX",
"qXqXqXqXqXqXqXqXqXqXqXqXqXqXqXqX  . ; V ( D.Q.(.(.).{.+X=X:X3X5X4X4X4X4X5X4X5X4X4X4X4X7X7X4X%XL.R w .   qXqXqXqXqXqXqXqXqXqXqXqX",
"qXqXqXqXqXqXqXqXqXqXqXqXqXqXqXqX  O 8 C [ D./.).(.).+X%X1X5X8X8X8X8X8X8X7X7X7X8X7X8X8X8X8X5X,XP.E w .   qXqXqXqXqXqXqXqXqXqXqXqX",
"qXqXqXqXqXqXqXqXqXqXqXqXqXqXqXqX  . 8 D [ Y.(.).).).@X%X2X8X9X8X5X3X>X>X>X>X>X>X>X>X>X3X3X>X+Xc.T q .   qXqXqXqXqXqXqXqXqXqXqXqX",
"qXqXqXqXqXqXqXqXqXqXqXqXqXqXqXqX  . 8 D [ Y.(.@X`.).+X-X3X9X8X>X&X].'.P.'.'.'.'.'.'.].].).R.c._ d : .   qXqXqXqXqXqXqXqXqXqXqXqX",
"qXqXqXqXqXqXqXqXqXqXqXqXqXqXqXqX  . : S [ Y.).`.`.).@X-X4X8X5X&XP.o.E T T E E E E _ _ _ ) E T d q * .   qXqXqXqXqXqXqXqXqXqXqXqX",
"qXqXqXqXqXqXqXqXqXqXqXqXqXqXqXqX  . 8 S [ J.(.).).).@X-X4X8X3X|.o.F e q q e e e e e e e e e q : * o .   qXqXqXqXqXqXqXqXqXqXqXqX",
"qXqXqXqXqXqXqXqXqXqXqXqXqXqXqXqX  . : S [ J./.).(.).@X;X4X8X3X|.o.F e q q e q 8 , o o * 8 q q : * o . . qXqXqXqXqXqXqXqXqXqXqXqX",
"qXqXqXqXqXqXqXqXqXqXqXqXqXqXqXqX  . : d ` D.Q./.(.).+X;X5X8X5X&XU.o.E E E E Y s 8 . . 8 C Y Y C r * .   qXqXqXqXqXqXqXqXqXqXqXqX",
"qXqXqXqXqXqXqXqXqXqXqXqXqXqXqXqX  . : f ~ Z.E.Q./.(.@X;X4X9X8X3X&X].'.'.].'.S.( a * * s ' S.S.' S : X   qXqXqXqXqXqXqXqXqXqXqXqX",
"qXqXqXqXqXqXqXqXqXqXqXqXqXqXqXqX  . - a R X.G.T.Q./.+X=X2X8X9X8X6X3X>X3X3X>X|.S.K q q T H.|.|.H.W q .   qXqXqXqXqXqXqXqXqXqXqXqX",
"qXqXqXqXqXqXqXqXqXqXqXqXqXqXqXqX  . * e F / o.Z.K.Q.{.$X,X4X5X8X6X6X6X6X6X3X&Xc.Q i v Q U.*X*XP.E r .   qXqXqXqXqXqXqXqXqXqXqXqX",
"qXqXqXqXqXqXqXqXqXqXqXqXqXqXqXqX  . * : u H ~ | B.K.!.}.+X<X<X0X0X0XOXOX#X0XoXc.k.B B k.c.oXoXf.K 3 .   qXqXqXqXqXqXqXqXqXqXqXqX",
"qXqXqXqXqXqXqXqXqXqXqXqXqXqXqXqX. . o * 8 y V ^ n.m.E./. X}.[.[.XXXX.X.X.X.Xz.y.,.:.:.,.t.z.j.7.m : X   qXqXqXqXqXqXqXqXqXqXqXqX",
"qXqXqXqXqXqXqXqXqXqXqXqXqXqXqXqX. O O o o > w Z / v.M.M.H.P.N.N.h.y.w.w.w.w.w.e.<.1.1.2.l.r.6.N z > .   qXqXqXqXqXqXqXqXqXqXqXqX",
"qXqXqXqXqXqXqXqXqXqXqXqXqXqXqXqX. . .     o = u I ] N.M.M.N.g.u.9.q.,.*.&.*.,.>.<.2.2.2.>.,.#.c 6 & .   qXqXqXqXqXqXqXqXqXqXqXqX",
"qXqXqXqXqXqXqXqXqXqXqXqXqXqXqXqXqX          % 0 A 7.u.p.u.u.8.8.5.5.3.q.6.6.5.e.y.t.t.y.y.5.3.m 6 & .   qXqXqXqXqXqXqXqXqXqXqXqX",
"qXqXqXqXqXqXqXqXqXqXqXqXqXqXqXqXqXqXqX    . + 6 m 3.q.0.0.0.5.8.8.7.i.u.u.u.u.a.h.h.h.h.a.i.! A t & .   qXqXqXqXqXqXqXqXqXqXqXqX",
"qXqXqXqXqXqXqXqXqXqXqXqXqXqXqXqXqXqXqXqX. X & 6 b 3.&.*.*.*.q.8.p.g.s.s.s.s.s.s.d.N.d.f.N.s.] K u = .   qXqXqXqXqXqXqXqXqXqXqXqX",
"qXqXqXqXqXqXqXqXqXqXqXqXqXqXqXqXqXqXqXqXX X & z n 3.&.*.*.*.q.8.g.M.A.G.G.A.A.A.m.F.G.F.H.M.n.W a - .   qXqXqXqXqXqXqXqXqXqXqXqX",
"qXqXqXqXqXqXqXqXqXqXqXqXqXqXqXqXqXqXqXg @ o & 0 M 3.0.0.0.0.8.a.N.H.E.R.R.E.K.K.T.T.E.E.E.Y.b.^ s : O   qXqXqXqXqXqXqXqXqXqXqXqX",
"qXqXqXqXqXqXqXqXqXqXqXqXqXqXqXqXqX-.+.j 1 # > t A ! p.i.i.i.g.N.H.W.~././.!./.Q.^.Q.!././.Q.C.( C : .   qXqXqXqXqXqXqXqXqXqXqXqX",
"qXqXqXqXqXqXqXqXqXqXqXqXqXqXqXqX;.%.+.l 5 @ - u K ] M.N.M.N.M.F.P.Q./././././.^./.^./.(.)./.D.[ V : .   qXqXqXqXqXqXqXqXqXqXqXqX",
"qXqXqXqXqXqXqXqXqXqXqXqXqXqXqXqX;.%.+.x g @ - y R } M.m.M.m.m.D.D.Y.Y.Y.Y.Y.Y.Y.Y.Y.R.Q./.!.D.[ V : .   qXqXqXqXqXqXqXqXqXqXqXqX",
"qXqXqXqXqXqXqXqXqXqXqXqXqXqXqX;.-.%.+.b g & - p R n.m.G.G.m.G.b.n... .[  . . . .[ [ n.V.Y.R.D.[ V : .   qXqXqXqXqXqXqXqXqXqXqXqX",
"qXqXqXqXqXqXqXqXqXqXqXqXqX%.%.-.-.%.+.x g @ - a R | m.F.H.m.v.{ ^ P C C D D C C C C P ` b.D.v./ d ; .   qXqXqXqXqXqXqXqXqXqXqXqX",
"qXqXqXqXqXqXqXqXqXqXqXqX%.%.%.-.-.%.+.x 5 @ - p I } m.G.G.m.X.~ V e 8 = 8 8 8 ; 8 8 y Z / n.} ^ s ; .   qXqXqXqXqXqXqXqXqXqXqXqX",
"qXqXqXqXqXqXqXqXqXqXqXqX%.%.%.-.-.%.+.x g @ = p R } m.M.m.} / I f 3 & # X X X o $ = w V R / / I a = .   qXqXqXqXqXqXqXqXqXqXqXqX",
"qXqXqXqXqXqXqXqXqXqXqXqX%.%.%.%.-.%.+.x 5 @ - a R } m.v.` ~ I v v g 4 < # X X % 8 r s Z H K I Z e = . qXqXqXqXqXqXqXqXqXqXqXqXqX",
"qXqXqXqXqXqXqXqXqXqXqXqX%.%.%.-.-.%.+.l g @ - s W X.v.' R V i v j k j g < X $ 8 f H I H Z a y w 9 qXqXqXqXqXqXqXqXqXqXqXqXqXqXqX",
"qXqXqXqXqXqXqXqXqXqXqXqX%.%.%.-.%.%.+.b g @ = a R { } ~ V r 3 z b O.O.k 5 @ = e H / / R d w - % qXqXqXqXqXqXqXqXqXqXqXqXqXqXqXqX",
"qXqXqXqXqXqXqXqXqXqXqXqX%.%.%.-.;.%.+.k 4 @ = e L / / I p - @ g n +.+.l 5 @ = y H / / I a - X   qXqXqXqXqXqXqXqXqXqXqXqXqXqXqXqX",
"qXqXqXqXqXqXqXqXqXqXqXqXqX%.%.-.;.%.O.j 1 # * q s G H Z r & # g n +.+.k 2 # * q V H I Z e *   qXqXqXqXqXqXqXqXqXqXqXqXqXqXqXqXqX",
"qXqXqXqXqXqXqXqXqXqXqXqXqXqXqXqXqXqXqXg < + o = 9 y y e 8 qXqXqXqXqXqXh < o o = 9 y a y q qXqXqXqXqXqXqXqXqXqXqXqXqXqXqXqXqXqXqX",
"qXqXqXqXqXqXqXqXqXqXqXqXqXqXqXqXqXqXqXqXo X X o $ = = = qXqXqXqXqXqXqXqX+ X o o % = = = qXqXqXqXqXqXqXqXqXqXqXqXqXqXqXqXqXqXqXqX",
"qXqXqXqXqXqXqXqXqXqXqXqXqXqXqXqXqXqXqXqX. . . . O . . . qXqXqXqXqXqXqXqX. . . X . . o O qXqXqXqXqXqXqXqXqXqXqXqXqXqXqXqXqXqXqXqX",
"qXqXqXqXqXqXqXqXqXqXqXqXqXqXqXqXqXqXqXqXqX. . .       qXqXqXqXqXqXqXqXqXqX. .         qXqXqXqXqXqXqXqXqXqXqXqXqXqXqXqXqXqXqXqXqX",
"qXqXqXqXqXqXqXqXqXqXqXqXqXqXqXqXqXqXqXqXqXqXqXqXqXqXqXqXqXqXqXqXqXqXqXqXqXqXqXqXqXqXqXqXqXqXqXqXqXqXqXqXqXqXqXqXqXqXqXqXqXqXqXqX",
"qXqXqXqXqXqXqXqXqXqXqXqXqXqXqXqXqXqXqXqXqXqXqXqXqXqXqXqXqXqXqXqXqXqXqXqXqXqXqXqXqXqXqXqXqXqXqXqXqXqXqXqXqXqXqXqXqXqXqXqXqXqXqXqX",
"qXqXqXqXqXqXqXqXqXqXqXqXqXqXqXqXqXqXqXqXqXqXqXqXqXqXqXqXqXqXqXqXqXqXqXqXqXqXqXqXqXqXqXqXqXqXqXqXqXqXqXqXqXqXqXqXqXqXqXqXqXqXqXqX",
"qXqXqXqXqXqXqXqXqXqXqXqXqXqXqXqXqXqXqXqXqXqXqXqXqXqXqXqXqXqXqXqXqXqXqXqXqXqXqXqXqXqXqXqXqXqXqXqXqXqXqXqXqXqXqXqXqXqXqXqXqXqXqXqX",
"qXqXqXqXqXqXqXqXqXqXqXqXqXqXqXqXqXqXqXqXqXqXqXqXqXqXqXqXqXqXqXqXqXqXqXqXqXqXqXqXqXqXqXqXqXqXqXqXqXqXqXqXqXqXqXqXqXqXqXqXqXqXqXqX",
"qXqXqXqXqXqXqXqXqXqXqXqXqXqXqXqXqXqXqXqXqXqXqXqXqXqXqXqXqXqXqXqXqXqXqXqXqXqXqXqXqXqXqXqXqXqXqXqXqXqXqXqXqXqXqXqXqXqXqXqXqXqXqXqX",
"qXqXqXqXqXqXqXqXqXqXqXqXqXqXqXqXqXqXqXqXqXqXqXqXqXqXqXqXqXqXqXqXqXqXqXqXqXqXqXqXqXqXqXqXqXqXqXqXqXqXqXqXqXqXqXqXqXqXqXqXqXqXqXqX",
"qXqXqXqXqXqXqXqXqXqXqXqXqXqXqXqXqXqXqXqXqXqXqXqXqXqXqXqXqXqXqXqXqXqXqXqXqXqXqXqXqXqXqXqXqXqXqXqXqXqXqXqXqXqXqXqXqXqXqXqXqXqXqXqX"
};
