/* XPM */
static char *result[] = {
/* columns rows colors chars-per-pixel */
"64 64 123 2 ",
"   c #141515",
".  c #161718",
"X  c #171818",
"o  c #1A1A1A",
"O  c #221E1D",
"+  c #291F1E",
"@  c #25201F",
"#  c #2B201E",
"$  c #252424",
"%  c #2B2322",
"&  c #292827",
"*  c #2A2A2A",
"=  c #332625",
"-  c #352827",
";  c #3B2927",
":  c #352C2B",
">  c #3A2B2A",
",  c #35302F",
"<  c #2F3030",
"1  c #333434",
"2  c #3D3534",
"3  c #373738",
"4  c #373838",
"5  c #3D3D3D",
"6  c #422F2D",
"7  c #46312F",
"8  c #473331",
"9  c #4C3432",
"0  c #4B3836",
"q  c #453D3D",
"w  c #4D3B39",
"e  c #513634",
"r  c #543936",
"t  c #5A3A36",
"y  c #533D3C",
"u  c #5B3D39",
"i  c #613B36",
"p  c #623F3A",
"a  c #56413F",
"s  c #5C413F",
"d  c #65423E",
"f  c #6B433E",
"g  c #3F4040",
"h  c #424343",
"j  c #484646",
"k  c #4A4B4B",
"l  c #534543",
"z  c #5B4442",
"x  c #564947",
"c  c #5B4947",
"v  c #524D4D",
"b  c #5B4B4A",
"n  c #54504F",
"m  c #5E504E",
"M  c #555454",
"N  c #595150",
"B  c #575858",
"V  c #5B5B5B",
"C  c #654541",
"Z  c #6C4642",
"A  c #644946",
"S  c #6C4945",
"D  c #624C4A",
"F  c #6B4D4A",
"G  c #704742",
"H  c #704844",
"J  c #714E4B",
"K  c #61504F",
"L  c #6B514E",
"P  c #73514E",
"I  c #645453",
"U  c #6F5552",
"Y  c #665857",
"T  c #6B5957",
"R  c #645C5B",
"E  c #6C5B59",
"W  c #745552",
"Q  c #745956",
"!  c #735E5B",
"~  c #7A5B58",
"^  c #6B605F",
"/  c #76605D",
"(  c #7A615F",
")  c #5F6061",
"_  c #636363",
"`  c #6D6363",
"'  c #6F6867",
"]  c #676969",
"[  c #6B6B6B",
"{  c #716664",
"}  c #7B6461",
"|  c #726867",
" . c #7D6966",
".. c #736C6B",
"X. c #7D6C6A",
"o. c #77706F",
"O. c #7B706F",
"+. c #6E7070",
"@. c #747272",
"#. c #7C7372",
"$. c #7A7A7A",
"%. c #816664",
"&. c #806A67",
"*. c #826C69",
"=. c #82706F",
"-. c #827473",
";. c #837877",
":. c #887876",
">. c #847E7E",
",. c #8A7C7B",
"<. c #85807F",
"1. c #8D807F",
"2. c #858181",
"3. c #8B8585",
"4. c #8B8887",
"5. c #8D8B8B",
"6. c #918483",
"7. c #958886",
"8. c #938B8A",
"9. c #959292",
"0. c #999594",
"q. c #A19C9C",
"w. c None",
/* pixels */
"w.w.w.w.w.w.w.w.w.w.w.w.w.w.w.w.w.w.w.w.                                        w.w.w.w.w.w.w.w.w.w.w.w.w.w.w.w.w.w.w.w.w.w.w.w.",
"w.w.w.w.w.w.w.w.w.w.w.w.w.w.w.w.w.w.w.w.o o o o X X o o . . o . o o o . . . . . w.w.w.w.w.w.w.w.w.w.w.w.w.w.w.w.w.w.w.w.w.w.w.w.",
"w.w.w.w.w.w.w.w.w.w.w.w.w.w.w.w.w.w.w.w.& & * * & & & & & & & & & & & * * < * * w.w.w.w.w.w.w.w.w.w.w.w.w.w.w.w.w.w.w.w.w.w.w.w.",
"w.w.w.w.w.w.w.w.w.w.w.w.w.w.w.w.w.w.w.< 4 g h h g h h g g h h h h h h j k k j h 3 w.w.w.w.w.w.w.w.w.w.w.w.w.w.w.w.w.w.w.w.w.w.w.",
"w.w.w.w.w.w.w.w.w.w.w.w.w.w.w.w.w.  $ 3 k V ) _ ) ) ) ) ) ) ) ) ) ) ) [ [ +.[ V g &   w.w.w.w.w.w.w.w.w.w.w.w.w.w.w.w.w.w.w.w.w.",
"w.w.w.w.w.w.w.w.w.w.w.w.w.w.w.w.  . & g V [ $.$.$.$.$.$.$.$.$.$.$.$.>.2.5.5.2.] j * .   w.w.w.w.w.w.w.w.w.w.w.w.w.w.w.w.w.w.w.w.",
"w.w.w.w.w.w.w.w.w.w.w.w.w.w.w.w.$ & 1 j ) @.>.>.2.2.2.<.>.<.<.>.>.>.2.8.9.0.3.+.M 5 * $ w.w.w.w.w.w.w.w.w.w.w.w.w.w.w.w.w.w.w.w.",
"w.w.w.w.w.w.w.w.w.w.w.w.w.w.w.* 3 g k n R ' o.O.#.#.#.-.#.-.-.-.-.-.:.,.1.1.>.o._ M k g 1 w.w.w.w.w.w.w.w.w.w.w.w.w.w.w.w.w.w.w.",
"w.w.w.w.w.w.w.w.w.w.w.w.w.  $ 3 k V ) ) R Y Y T E ! / / ( } } } } } } } %. .X.O.o.+.[ B 5 $   w.w.w.w.w.w.w.w.w.w.w.w.w.w.w.w.w.",
"w.w.w.w.w.w.w.w.w.w.w.w.  o * 5 V [ o.' Y c s s C A F F J P J P P P P J F F Q  .,.3.2.[ k * o   w.w.w.w.w.w.w.w.w.w.w.w.w.w.w.w.",
"w.w.w.w.w.w.w.w.w.w.w.w.$ & 1 j ) o.#.{ K a r e t s p Z Z H H H H H S Z f C F } :.8.3.+.B 5 * $ w.w.w.w.w.w.w.w.w.w.w.w.w.w.w.w.",
"w.w.w.w.w.w.w.w.w.w.w.1 3 g j M ) ' { E D a r t t p p f f f H f G H Z p p p C Q *.,.>.o.) n k g 3 w.w.w.w.w.w.w.w.w.w.w.w.w.w.w.",
"w.w.w.w.w.w.w.w.w.o & 5 j B V ^ R Y I D z u u u u p p f Z Z H H H G Z f p p C F Q }  .o.o...] B g * o w.w.w.w.w.w.w.w.w.w.w.w.w.",
"w.w.w.w.w.w.w.w.  X * g V +.@.[ Y c a u u s p p p p p C Z Z H H H H Z f Z p p C C F Q  .,.4.2.] j * o   w.w.w.w.w.w.w.w.w.w.w.w.",
"w.w.w.w.w.w.w.w.  X * g ) $.$...Y a e e u p p C p p Z C Z H H H H H G Z Z p p p p p L  .6.0.9.+.k * o   w.w.w.w.w.w.w.w.w.w.w.w.",
"w.w.w.w.w.w.w.w.  o & j _ >.2.#.I y 9 9 t p p C Z C f Z Z H H H H H Z H Z C Z p i p F  .7.q.9.$.M * .   w.w.w.w.w.w.w.w.w.w.w.w.",
"w.w.w.w.w.w.w.w.  X & j _ 2.2.#.Y y 9 e t u d f Z C Z H Z H H H f S H H S f f d i i F  .5.q.0.$.k < o   w.w.w.w.w.w.w.w.w.w.w.w.",
"w.w.w.w.w.w.w.w.  o $ h ) $.$...Y a 9 e t p d C Z Z Z S H H H S H H H H H S f d d d F  .4.0.9.+.k * o   w.w.w.w.w.w.w.w.w.w.w.w.",
"w.w.w.w.w.w.w.w.  o $ 5 B [ @.[ Y c y u u p d d Z Z Z Z Z Z H Z H H f S H S Z S S L Q  .<.4.>.) h * o   w.w.w.w.w.w.w.w.w.w.w.w.",
"w.w.w.w.w.w.w.w.. o $ 1 g B ) ^ R Y I D z u u u p f Z f Z f Z f f f f f f f Z P Q (  .o.o.o.] k 4 $ .   w.w.w.w.w.w.w.w.w.w.w.w.",
"w.w.w.w.w.w.w.w.. o O & < 5 j M ) ' ' T D u r t u p f f p f p f d d f d i d S ~ =.:.<.O.^ M g 1 * o o . w.w.w.w.w.w.w.w.w.w.w.w.",
"w.w.w.w.w.w.w.w.. . o o O $ 3 j _ @.#.| I a r r u p p C Z p C p d d d d d d L ( :.7.4.@.M 5 * $ O o o X w.w.w.w.w.w.w.w.w.w.w.w.",
"w.w.w.w.w.w.w.w.. o o o o o * h V o.#...Y c a s C A A F F D F A S A Z F F L Q *.1.8.4...v , + o o o o X w.w.w.w.w.w.w.w.w.w.w.w.",
"w.w.w.w.w.w.w.w.o o o o o + = q N ` | { ^ Y Y T E ! E ! ! ! ! ! E ! ! ^ ( } X.-.1.1.-.^ a > + O o o o o w.w.w.w.w.w.w.w.w.w.w.w.",
"w.w.w.w.w.w.w.w.X o o O + = ; 0 l b T ` ' ' ....#.o.O.#.O.O.#.o.O.O.O.:.>.1.,.,.-.X./ L a 8 > % + o o X w.w.w.w.w.w.w.w.w.w.w.w.",
"w.w.w.w.w.w.w.w.X o o % = 6 7 9 w y c Y ' #.>.2.2.>.>.>.<.>.>.>.<.<.3.4.9.0.8.,. .Q F C d u e > % O o   w.w.w.w.w.w.w.w.w.w.w.w.",
"w.w.w.w.w.w.w.w.. o O = 2 0 y y r 9 y K { #.,.2.2.>.<.>.>.<.2.<.<.<.3.5.9.0.8.:./ F C d S F c w : $ o . w.w.w.w.w.w.w.w.w.w.w.w.",
"w.w.w.w.w.w.w.w.. X $ , j b I c y 9 r c E X.-.-.-.-.-.-.#.O.O.O.O.-.-.,.1.6.,.&.W C d F Q ( ! b 2 $ o   w.w.w.w.w.w.w.w.w.w.w.w.",
"w.w.w.w.w.w.w.w.  o $ 4 n ` { T c r 9 s F ! } %.} } } / ! ! ! ! ( ~ %.*.*.*.%.~ S d Z Q *.:.-.R a & o   w.w.w.w.w.w.w.w.w.w.w.w.",
"w.w.w.w.w.w.w.w.  o * 5 V ..@.{ K a r u C F P P P P J J F S F F P J P P W P W H C C F } ,.8.3.[ h * X   w.w.w.w.w.w.w.w.w.w.w.w.",
"w.w.w.w.w.w.w.w.  o $ q V ..#...R c z z C Z S H H H H H f p Z f Z Z H H H H G H S F Q *.1.8.3.[ j & o   w.w.w.w.w.w.w.w.w.w.w.w.",
"w.w.w.w.w.w.w.w.  . $ 3 v _ ..| ^ Y I F F Z Z f G f f p p p p p f f f f f f G P Q } X.:.,.1.#.V h & X   w.w.w.w.w.w.w.w.w.w.w.w.",
"w.w.w.w.w.w.w.w.. . @ , q b R ` | ..| / P H f f f f f f p d i d f f f f f G H %.=.:.1.1.:.&./ x , $ X   w.w.w.w.w.w.w.w.w.w.w.w.",
"w.w.w.w.w.w.w.w.. . O % > w c E ..#.-.X.~ W H f H H S f f d d d Z Z H G f H P %.1.8.8.1.*.W c 8 : @ o   w.w.w.w.w.w.w.w.w.w.w.w.",
"w.w.w.w.w.w.w.w.. . o % > 8 y K ` @.#.O.} Q P P P P P L F F F F J P P J J W ~ *.1.8.7.:.( L t 7 % @ o X w.w.w.w.w.w.w.w.w.w.w.w.",
"w.w.w.w.w.w.w.w.. o O + - 7 w b Y | .... .} ( ( ( ( ( / Q ! / / ! ( ( ( ~ ( %.*.:.1.:.X.Q Z t 7 = @ X X w.w.w.w.w.w.w.w.w.w.w.w.",
"w.w.w.w.w.w.w.w.. . O % - 7 e a c I Y ^  .O.-.-.=.#.-.#.O.O.O.#.#.-.-.-.-.-.O.=.O.X.( ! L d t 7 = O o X w.w.w.w.w.w.w.w.w.w.w.w.",
"w.w.w.w.w.w.w.w.. o O % ; 7 9 e r a c Y | $.<.3.1.1.<.<.<.<.<.<.>.>.2.2.2.1.;.X.( L F Z A d t 7 % + X X w.w.w.w.w.w.w.w.w.w.w.w.",
"w.w.w.w.w.w.w.w.. . O % > 7 9 e e e z I { #.<.2.3.<.<.<.<.<.<.<.<.<.2.2.2.<.;.X.U F d d d d t 7 = + X   w.w.w.w.w.w.w.w.w.w.w.w.",
"w.w.w.w.w.w.w.w..   O % > 8 9 r r t s F ! X.-.-.-.#.-.-.O.O.O.O.#.-.-.-.-.#.X./ L d d i d d u 8 = @ X X w.w.w.w.w.w.w.w.w.w.w.w.",
"w.w.w.w.w.w.w.w.X X o % > 8 e r u p C S W ~ } } ( ( ( / / ! ! / ! ( ( ( ( ( ~ W S d d d d d t 7 = O X . w.w.w.w.w.w.w.w.w.w.w.w.",
"w.w.w.w.w.w.w.w.X o O % ; 7 r u p d S H J J W J P P P P F F S F P P P P P P P F A d d d d d t 7 = + X . w.w.w.w.w.w.w.w.w.w.w.w.",
"w.w.w.w.w.w.w.w.X o o % - 6 9 r u C Z Z H G S H H H H S d d d f Z Z H H H H H Z f d s u s t 9 7 = O o X w.w.w.w.w.w.w.w.w.w.w.w.",
"w.w.w.w.w.w.w.w.w.o O % % : > 9 r d C Z Z Z G G G H f f d d d d f Z G G G G Z f f d d u e 9 7 > % O o w.w.w.w.w.w.w.w.w.w.w.w.w.",
"w.w.w.w.w.w.w.w.w.w.w.O O % = > 8 u p C Z Z G H H f G f d d d f C G G G H G G Z f d s e 7 > = % $ w.w.w.w.w.w.w.w.w.w.w.w.w.w.w.",
"w.w.w.w.w.w.w.w.w.w.w.w.O O O = > 8 r u p Z H H H H H f d d d d Z G H G H H S Z Z d t 7 > # @ o w.w.w.w.w.w.w.w.w.w.w.w.w.w.w.w.",
"w.w.w.w.w.w.w.w.w.w.w.w.X . O % ; 6 9 u u Z G H H H S C f d d C f Z H H H G Z f d s e 7 = @ o X w.w.w.w.w.w.w.w.w.w.w.w.w.w.w.w.",
"w.w.w.w.w.w.w.w.w.w.w.w.w.. o O % - > 9 u Z Z Z f S Z Z d d d f C Z S G G Z f s r 8 7 - % o X w.w.w.w.w.w.w.w.w.w.w.w.w.w.w.w.w.",
"w.w.w.w.w.w.w.w.w.w.w.w.w.w.w.O @ % - 7 9 d Z Z Z Z A f d d C d f C f S Z C d r 7 > = % + w.w.w.w.w.w.w.w.w.w.w.w.w.w.w.w.w.w.w.",
"w.w.w.w.w.w.w.w.w.w.w.w.w.w.w.w.o o % ; 8 u d f d d d d d d d d d d d d f d u 8 > % + o w.w.w.w.w.w.w.w.w.w.w.w.w.w.w.w.w.w.w.w.",
"w.w.w.w.w.w.w.w.w.w.w.w.w.w.w.w.. o + = 7 9 t u t a t t u t r u u t u u u u 9 7 = O o . w.w.w.w.w.w.w.w.w.w.w.w.w.w.w.w.w.w.w.w.",
"w.w.w.w.w.w.w.w.w.w.w.w.w.w.w.w.w.o o % - 7 7 7 7 7 7 7 7 8 7 8 7 7 7 7 7 7 7 > % o X w.w.w.w.w.w.w.w.w.w.w.w.w.w.w.w.w.w.w.w.w.",
"w.w.w.w.w.w.w.w.w.w.w.w.w.w.w.w.w.w.w.$ % % = = = = = = = = = = = = = = = = = % % w.w.w.w.w.w.w.w.w.w.w.w.w.w.w.w.w.w.w.w.w.w.w.",
"w.w.w.w.w.w.w.w.w.w.w.w.w.w.w.w.w.w.w.w.@ O + O @ @ O @ @ @ @ O @ O O $ O O @ O w.w.w.w.w.w.w.w.w.w.w.w.w.w.w.w.w.w.w.w.w.w.w.w.",
"w.w.w.w.w.w.w.w.w.w.w.w.w.w.w.w.w.w.w.w.o o o X X o X X X o X X X o X o X o o o w.w.w.w.w.w.w.w.w.w.w.w.w.w.w.w.w.w.w.w.w.w.w.w.",
"w.w.w.w.w.w.w.w.w.w.w.w.w.w.w.w.w.w.w.w.w.X . . X   X X X   X X X   . . X   . w.w.w.w.w.w.w.w.w.w.w.w.w.w.w.w.w.w.w.w.w.w.w.w.w.",
"w.w.w.w.w.w.w.w.w.w.w.w.w.w.w.w.w.w.w.w.w.w.w.w.w.w.w.w.w.w.w.w.w.w.w.w.w.w.w.w.w.w.w.w.w.w.w.w.w.w.w.w.w.w.w.w.w.w.w.w.w.w.w.w.",
"w.w.w.w.w.w.w.w.w.w.w.w.w.w.w.w.w.w.w.w.w.w.w.w.w.w.w.w.w.w.w.w.w.w.w.w.w.w.w.w.w.w.w.w.w.w.w.w.w.w.w.w.w.w.w.w.w.w.w.w.w.w.w.w.",
"w.w.w.w.w.w.w.w.w.w.w.w.w.w.w.w.w.w.w.w.w.w.w.w.w.w.w.w.w.w.w.w.w.w.w.w.w.w.w.w.w.w.w.w.w.w.w.w.w.w.w.w.w.w.w.w.w.w.w.w.w.w.w.w.",
"w.w.w.w.w.w.w.w.w.w.w.w.w.w.w.w.w.w.w.w.w.w.w.w.w.w.w.w.w.w.w.w.w.w.w.w.w.w.w.w.w.w.w.w.w.w.w.w.w.w.w.w.w.w.w.w.w.w.w.w.w.w.w.w.",
"w.w.w.w.w.w.w.w.w.w.w.w.w.w.w.w.w.w.w.w.w.w.w.w.w.w.w.w.w.w.w.w.w.w.w.w.w.w.w.w.w.w.w.w.w.w.w.w.w.w.w.w.w.w.w.w.w.w.w.w.w.w.w.w.",
"w.w.w.w.w.w.w.w.w.w.w.w.w.w.w.w.w.w.w.w.w.w.w.w.w.w.w.w.w.w.w.w.w.w.w.w.w.w.w.w.w.w.w.w.w.w.w.w.w.w.w.w.w.w.w.w.w.w.w.w.w.w.w.w.",
"w.w.w.w.w.w.w.w.w.w.w.w.w.w.w.w.w.w.w.w.w.w.w.w.w.w.w.w.w.w.w.w.w.w.w.w.w.w.w.w.w.w.w.w.w.w.w.w.w.w.w.w.w.w.w.w.w.w.w.w.w.w.w.w.",
"w.w.w.w.w.w.w.w.w.w.w.w.w.w.w.w.w.w.w.w.w.w.w.w.w.w.w.w.w.w.w.w.w.w.w.w.w.w.w.w.w.w.w.w.w.w.w.w.w.w.w.w.w.w.w.w.w.w.w.w.w.w.w.w."
};
